
<svg width="28" height="28" viewBox="0 0 28 28" fill="none" xmlns="http://www.w3.org/2000/svg">
<rect width="28" height="28" fill="#B560A8"/>
<line x1="4.5" y1="20.5" x2="23.5" y2="20.5" stroke="white" stroke-linecap="round"/>
<path d="M4.80762 10L4.80762 18.0769" stroke="white" stroke-linecap="round"/>
<path d="M10.4615 13.2305L9.65386 18.0766" stroke="white" stroke-linecap="round"/>
<path d="M20.0156 17.4844C20.0156 17.6562 19.974 17.8203 19.8906 17.9766C19.8073 18.1276 19.6927 18.2578 19.5469 18.3672C19.4062 18.4818 19.237 18.5703 19.0391 18.6328C18.8464 18.7005 18.638 18.7344 18.4141 18.7344C18.1901 18.7344 17.9792 18.7005 17.7812 18.6328C17.5885 18.5703 17.4193 18.4818 17.2734 18.3672C17.1328 18.2578 17.0208 18.1276 16.9375 17.9766C16.8542 17.8203 16.8125 17.6562 16.8125 17.4844C16.8125 17.3177 16.8542 17.1615 16.9375 17.0156C17.0208 16.8646 17.1328 16.7344 17.2734 16.625C17.4193 16.5104 17.5885 16.4219 17.7812 16.3594C17.9792 16.2917 18.1901 16.2578 18.4141 16.2578C18.638 16.2578 18.8464 16.2917 19.0391 16.3594C19.237 16.4219 19.4062 16.5104 19.5469 16.625C19.6927 16.7344 19.8073 16.8646 19.8906 17.0156C19.974 17.1615 20.0156 17.3177 20.0156 17.4844ZM23.6172 9.84375C23.5807 10.3385 23.4297 10.8203 23.1641 11.2891C23.0495 11.487 22.9062 11.6927 22.7344 11.9062C22.5625 12.1198 22.349 12.3307 22.0938 12.5391C21.8385 12.7422 21.5391 12.9375 21.1953 13.125C20.8568 13.3125 20.4635 13.4818 20.0156 13.6328L19.8047 15.2812H17.3125C17.3281 15.1979 17.3359 15.1172 17.3359 15.0391C17.3411 14.9609 17.3438 14.8802 17.3438 14.7969C17.3438 14.151 17.263 13.513 17.1016 12.8828C17.6745 12.8151 18.237 12.7292 18.7891 12.625C19.3464 12.5208 19.8932 12.388 20.4297 12.2266C20.4609 11.9141 20.487 11.6016 20.5078 11.2891C20.5339 10.9766 20.5469 10.6641 20.5469 10.3516C20.5469 9.95052 20.5286 9.55208 20.4922 9.15625C20.4609 8.75521 20.4141 8.35417 20.3516 7.95312C20.1849 7.9375 20.0182 7.92708 19.8516 7.92188C19.6901 7.91146 19.5208 7.90625 19.3438 7.90625C19.0052 7.90625 18.6641 7.92188 18.3203 7.95312C17.9818 7.98438 17.6406 8.03646 17.2969 8.10938C17.2865 8.21354 17.2812 8.3151 17.2812 8.41406C17.2812 8.51302 17.2812 8.61458 17.2812 8.71875C17.2812 9.07812 17.3099 9.4375 17.3672 9.79688C17.4297 10.151 17.513 10.5078 17.6172 10.8672L15.0859 11.1016C14.9609 10.9766 14.862 10.8307 14.7891 10.6641C14.7161 10.4922 14.6589 10.3177 14.6172 10.1406C14.5755 9.96354 14.5469 9.79167 14.5312 9.625C14.5208 9.45312 14.5156 9.30208 14.5156 9.17188C14.5156 9.03646 14.526 8.86198 14.5469 8.64844C14.5677 8.4349 14.6224 8.20833 14.7109 7.96875C14.7995 7.72396 14.9297 7.47917 15.1016 7.23438C15.2786 6.98958 15.5182 6.77083 15.8203 6.57812C16.1276 6.38021 16.5078 6.21875 16.9609 6.09375C17.4193 5.96875 17.974 5.90625 18.625 5.90625C19.5365 5.90625 20.3099 6.0026 20.9453 6.19531C21.5807 6.38281 22.0964 6.64844 22.4922 6.99219C22.888 7.33594 23.1745 7.75 23.3516 8.23438C23.5286 8.71875 23.6172 9.25521 23.6172 9.84375Z" fill="white"/>
</svg>
